<mxfile host="65bd71144e" pages="2">
    <diagram id="au-72ETqaZoer-sc9gYh" name="peer">
        <mxGraphModel dx="448" dy="261" grid="1" gridSize="10" guides="1" tooltips="1" connect="1" arrows="1" fold="1" page="1" pageScale="1" pageWidth="850" pageHeight="1100" math="0" shadow="0">
            <root>
                <mxCell id="0"/>
                <mxCell id="1" parent="0"/>
                <mxCell id="p1_OekAdAAzAbA3hXXA6-22" style="edgeStyle=none;rounded=0;orthogonalLoop=1;jettySize=auto;html=1;exitX=1;exitY=0.5;exitDx=0;exitDy=0;entryX=0;entryY=0.25;entryDx=0;entryDy=0;startArrow=open;startFill=0;endArrow=none;endFill=0;fillColor=#f5f5f5;strokeColor=#666666;" parent="1" source="p1_OekAdAAzAbA3hXXA6-2" target="p1_OekAdAAzAbA3hXXA6-21" edge="1">
                    <mxGeometry relative="1" as="geometry"/>
                </mxCell>
                <mxCell id="p1_OekAdAAzAbA3hXXA6-2" value="" style="ellipse;whiteSpace=wrap;html=1;aspect=fixed;fillColor=#f5f5f5;strokeColor=#666666;fontColor=#333333;" parent="1" vertex="1">
                    <mxGeometry x="200" y="200" width="40" height="40" as="geometry"/>
                </mxCell>
                <mxCell id="p1_OekAdAAzAbA3hXXA6-3" value="" style="ellipse;whiteSpace=wrap;html=1;aspect=fixed;fillColor=#e51400;strokeColor=#B20000;fontColor=#ffffff;" parent="1" vertex="1">
                    <mxGeometry x="280" y="120" width="40" height="40" as="geometry"/>
                </mxCell>
                <mxCell id="p1_OekAdAAzAbA3hXXA6-6" value="" style="ellipse;whiteSpace=wrap;html=1;aspect=fixed;fillColor=#e3c800;strokeColor=#B09500;fontColor=#000000;" parent="1" vertex="1">
                    <mxGeometry x="200" y="240" width="40" height="40" as="geometry"/>
                </mxCell>
                <mxCell id="p1_OekAdAAzAbA3hXXA6-31" style="edgeStyle=none;rounded=0;orthogonalLoop=1;jettySize=auto;html=1;exitX=0.5;exitY=1;exitDx=0;exitDy=0;entryX=0.75;entryY=0;entryDx=0;entryDy=0;startArrow=open;startFill=0;endArrow=none;endFill=0;fillColor=#f5f5f5;strokeColor=#666666;" parent="1" source="p1_OekAdAAzAbA3hXXA6-7" target="p1_OekAdAAzAbA3hXXA6-21" edge="1">
                    <mxGeometry relative="1" as="geometry"/>
                </mxCell>
                <mxCell id="p1_OekAdAAzAbA3hXXA6-7" value="" style="ellipse;whiteSpace=wrap;html=1;aspect=fixed;fillColor=#f5f5f5;strokeColor=#666666;fontColor=#333333;" parent="1" vertex="1">
                    <mxGeometry x="320" y="120" width="40" height="40" as="geometry"/>
                </mxCell>
                <mxCell id="p1_OekAdAAzAbA3hXXA6-13" value="" style="ellipse;whiteSpace=wrap;html=1;aspect=fixed;fillColor=#76608a;strokeColor=#432D57;fontColor=#ffffff;" parent="1" vertex="1">
                    <mxGeometry x="300" y="320" width="40" height="40" as="geometry"/>
                </mxCell>
                <mxCell id="p1_OekAdAAzAbA3hXXA6-18" value="" style="ellipse;whiteSpace=wrap;html=1;aspect=fixed;fillColor=#6d8764;strokeColor=#3A5431;fontColor=#ffffff;" parent="1" vertex="1">
                    <mxGeometry x="400" y="200" width="40" height="40" as="geometry"/>
                </mxCell>
                <mxCell id="p1_OekAdAAzAbA3hXXA6-26" style="edgeStyle=none;rounded=0;orthogonalLoop=1;jettySize=auto;html=1;exitX=0;exitY=0.5;exitDx=0;exitDy=0;entryX=1;entryY=0.75;entryDx=0;entryDy=0;startArrow=open;startFill=0;endArrow=none;endFill=0;fillColor=#f5f5f5;strokeColor=#666666;" parent="1" source="p1_OekAdAAzAbA3hXXA6-19" target="p1_OekAdAAzAbA3hXXA6-21" edge="1">
                    <mxGeometry relative="1" as="geometry"/>
                </mxCell>
                <mxCell id="p1_OekAdAAzAbA3hXXA6-19" value="" style="ellipse;whiteSpace=wrap;html=1;aspect=fixed;fillColor=#f5f5f5;strokeColor=#666666;fontColor=#333333;" parent="1" vertex="1">
                    <mxGeometry x="400" y="240" width="40" height="40" as="geometry"/>
                </mxCell>
                <mxCell id="p1_OekAdAAzAbA3hXXA6-23" style="edgeStyle=none;rounded=0;orthogonalLoop=1;jettySize=auto;html=1;exitX=0;exitY=0.75;exitDx=0;exitDy=0;entryX=1;entryY=0.5;entryDx=0;entryDy=0;startArrow=open;startFill=0;endArrow=none;endFill=0;fillColor=#e3c800;strokeColor=#B09500;" parent="1" source="p1_OekAdAAzAbA3hXXA6-21" target="p1_OekAdAAzAbA3hXXA6-6" edge="1">
                    <mxGeometry relative="1" as="geometry"/>
                </mxCell>
                <mxCell id="p1_OekAdAAzAbA3hXXA6-25" style="edgeStyle=none;rounded=0;orthogonalLoop=1;jettySize=auto;html=1;exitX=1;exitY=0.25;exitDx=0;exitDy=0;entryX=0;entryY=0.5;entryDx=0;entryDy=0;startArrow=open;startFill=0;endArrow=none;endFill=0;fillColor=#6d8764;strokeColor=#3A5431;" parent="1" source="p1_OekAdAAzAbA3hXXA6-21" target="p1_OekAdAAzAbA3hXXA6-18" edge="1">
                    <mxGeometry relative="1" as="geometry"/>
                </mxCell>
                <mxCell id="p1_OekAdAAzAbA3hXXA6-30" style="edgeStyle=none;rounded=0;orthogonalLoop=1;jettySize=auto;html=1;exitX=0.25;exitY=0;exitDx=0;exitDy=0;entryX=0.5;entryY=1;entryDx=0;entryDy=0;startArrow=open;startFill=0;endArrow=none;endFill=0;fillColor=#e51400;strokeColor=#B20000;" parent="1" source="p1_OekAdAAzAbA3hXXA6-21" target="p1_OekAdAAzAbA3hXXA6-3" edge="1">
                    <mxGeometry relative="1" as="geometry"/>
                </mxCell>
                <mxCell id="p1_OekAdAAzAbA3hXXA6-33" style="edgeStyle=none;rounded=0;orthogonalLoop=1;jettySize=auto;html=1;exitX=0.5;exitY=1;exitDx=0;exitDy=0;entryX=0.5;entryY=0;entryDx=0;entryDy=0;startArrow=open;startFill=0;endArrow=none;endFill=0;fillColor=#76608a;strokeColor=#432D57;" parent="1" source="p1_OekAdAAzAbA3hXXA6-21" target="p1_OekAdAAzAbA3hXXA6-13" edge="1">
                    <mxGeometry relative="1" as="geometry"/>
                </mxCell>
                <mxCell id="p1_OekAdAAzAbA3hXXA6-21" value="" style="whiteSpace=wrap;html=1;aspect=fixed;" parent="1" vertex="1">
                    <mxGeometry x="280" y="200" width="80" height="80" as="geometry"/>
                </mxCell>
                <mxCell id="p1_OekAdAAzAbA3hXXA6-37" style="edgeStyle=none;rounded=0;orthogonalLoop=1;jettySize=auto;html=1;exitX=1;exitY=0.75;exitDx=0;exitDy=0;entryX=0.485;entryY=0.992;entryDx=0;entryDy=0;startArrow=open;startFill=0;endArrow=none;endFill=0;fillColor=#76608a;strokeColor=#432D57;entryPerimeter=0;" parent="1" source="p1_OekAdAAzAbA3hXXA6-21" target="p1_OekAdAAzAbA3hXXA6-21" edge="1">
                    <mxGeometry relative="1" as="geometry"/>
                </mxCell>
                <mxCell id="p1_OekAdAAzAbA3hXXA6-38" style="edgeStyle=none;rounded=0;orthogonalLoop=1;jettySize=auto;html=1;exitX=0.75;exitY=0;exitDx=0;exitDy=0;entryX=1;entryY=0.25;entryDx=0;entryDy=0;startArrow=open;startFill=0;endArrow=none;endFill=0;fillColor=#6d8764;strokeColor=#3A5431;" parent="1" source="p1_OekAdAAzAbA3hXXA6-21" target="p1_OekAdAAzAbA3hXXA6-21" edge="1">
                    <mxGeometry relative="1" as="geometry"/>
                </mxCell>
                <mxCell id="p1_OekAdAAzAbA3hXXA6-39" style="edgeStyle=none;rounded=0;orthogonalLoop=1;jettySize=auto;html=1;exitX=0;exitY=0.25;exitDx=0;exitDy=0;entryX=0.25;entryY=0;entryDx=0;entryDy=0;startArrow=open;startFill=0;endArrow=none;endFill=0;fillColor=#e51400;strokeColor=#B20000;" parent="1" source="p1_OekAdAAzAbA3hXXA6-21" target="p1_OekAdAAzAbA3hXXA6-21" edge="1">
                    <mxGeometry relative="1" as="geometry"/>
                </mxCell>
                <mxCell id="p1_OekAdAAzAbA3hXXA6-40" style="edgeStyle=none;rounded=0;orthogonalLoop=1;jettySize=auto;html=1;startArrow=open;startFill=0;endArrow=none;endFill=0;entryX=0;entryY=0.75;entryDx=0;entryDy=0;fillColor=#e3c800;strokeColor=#B09500;" parent="1" target="p1_OekAdAAzAbA3hXXA6-21" edge="1">
                    <mxGeometry relative="1" as="geometry">
                        <mxPoint x="360" y="260" as="sourcePoint"/>
                    </mxGeometry>
                </mxCell>
                <mxCell id="p1_OekAdAAzAbA3hXXA6-42" style="edgeStyle=none;rounded=0;orthogonalLoop=1;jettySize=auto;html=1;exitX=1;exitY=0.25;exitDx=0;exitDy=0;startArrow=open;startFill=0;endArrow=none;endFill=0;entryX=1;entryY=0.25;entryDx=0;entryDy=0;fillColor=#6d8764;strokeColor=#3A5431;" parent="1" target="p1_OekAdAAzAbA3hXXA6-21" edge="1">
                    <mxGeometry relative="1" as="geometry">
                        <mxPoint x="280" y="220.093023255814" as="sourcePoint"/>
                    </mxGeometry>
                </mxCell>
                <mxCell id="p1_OekAdAAzAbA3hXXA6-44" style="edgeStyle=none;rounded=0;orthogonalLoop=1;jettySize=auto;html=1;exitX=0.25;exitY=0;exitDx=0;exitDy=0;startArrow=open;startFill=0;endArrow=none;endFill=0;entryX=0.25;entryY=0;entryDx=0;entryDy=0;fillColor=#e51400;strokeColor=#B20000;" parent="1" target="p1_OekAdAAzAbA3hXXA6-21" edge="1">
                    <mxGeometry relative="1" as="geometry">
                        <mxPoint x="360" y="260" as="sourcePoint"/>
                    </mxGeometry>
                </mxCell>
                <mxCell id="p1_OekAdAAzAbA3hXXA6-47" style="edgeStyle=none;rounded=0;orthogonalLoop=1;jettySize=auto;html=1;exitX=0;exitY=0.75;exitDx=0;exitDy=0;startArrow=open;startFill=0;endArrow=none;endFill=0;entryX=0;entryY=0.75;entryDx=0;entryDy=0;fillColor=#e3c800;strokeColor=#B09500;" parent="1" target="p1_OekAdAAzAbA3hXXA6-21" edge="1">
                    <mxGeometry relative="1" as="geometry">
                        <mxPoint x="340.00000000000006" y="200" as="sourcePoint"/>
                    </mxGeometry>
                </mxCell>
                <mxCell id="p1_OekAdAAzAbA3hXXA6-48" style="edgeStyle=none;rounded=0;orthogonalLoop=1;jettySize=auto;html=1;exitX=0.75;exitY=1;exitDx=0;exitDy=0;startArrow=open;startFill=0;endArrow=none;endFill=0;entryX=0.5;entryY=1;entryDx=0;entryDy=0;fillColor=#76608a;strokeColor=#432D57;" parent="1" target="p1_OekAdAAzAbA3hXXA6-21" edge="1">
                    <mxGeometry relative="1" as="geometry">
                        <mxPoint x="280" y="220" as="sourcePoint"/>
                    </mxGeometry>
                </mxCell>
                <mxCell id="p1_OekAdAAzAbA3hXXA6-45" style="edgeStyle=none;rounded=0;orthogonalLoop=1;jettySize=auto;html=1;exitX=0.75;exitY=1;exitDx=0;exitDy=0;startArrow=open;startFill=0;endArrow=none;endFill=0;entryX=0.5;entryY=1;entryDx=0;entryDy=0;fillColor=#76608a;strokeColor=#432D57;" parent="1" target="p1_OekAdAAzAbA3hXXA6-21" edge="1">
                    <mxGeometry relative="1" as="geometry">
                        <mxPoint x="340.0232558139535" y="200" as="sourcePoint"/>
                    </mxGeometry>
                </mxCell>
            </root>
        </mxGraphModel>
    </diagram>
    <diagram id="qZcUVutlU9zLF8pTl0WY" name="link">
        <mxGraphModel dx="649" dy="378" grid="1" gridSize="10" guides="1" tooltips="1" connect="1" arrows="1" fold="1" page="1" pageScale="1" pageWidth="850" pageHeight="1100" math="0" shadow="0">
            <root>
                <mxCell id="QliWCdG8XgG-nN9K2C-c-0"/>
                <mxCell id="QliWCdG8XgG-nN9K2C-c-1" parent="QliWCdG8XgG-nN9K2C-c-0"/>
                <mxCell id="QliWCdG8XgG-nN9K2C-c-12" style="edgeStyle=none;rounded=0;orthogonalLoop=1;jettySize=auto;html=1;exitX=0.5;exitY=0;exitDx=0;exitDy=0;entryX=0.5;entryY=1;entryDx=0;entryDy=0;startArrow=open;startFill=0;endArrow=none;endFill=0;fillColor=#647687;strokeColor=#314354;" parent="QliWCdG8XgG-nN9K2C-c-1" source="QliWCdG8XgG-nN9K2C-c-5" target="QliWCdG8XgG-nN9K2C-c-9" edge="1">
                    <mxGeometry relative="1" as="geometry"/>
                </mxCell>
                <mxCell id="QliWCdG8XgG-nN9K2C-c-3" value="" style="rounded=0;whiteSpace=wrap;html=1;fillColor=none;dashed=1;dashPattern=1 1;" parent="QliWCdG8XgG-nN9K2C-c-1" vertex="1">
                    <mxGeometry x="270" y="190" width="100" height="60" as="geometry"/>
                </mxCell>
                <mxCell id="QliWCdG8XgG-nN9K2C-c-4" value="" style="ellipse;whiteSpace=wrap;html=1;aspect=fixed;dashed=1;strokeColor=#BD7000;fontColor=#000000;fillColor=none;" parent="QliWCdG8XgG-nN9K2C-c-1" vertex="1">
                    <mxGeometry x="280" y="200" width="40" height="40" as="geometry"/>
                </mxCell>
                <mxCell id="QliWCdG8XgG-nN9K2C-c-5" value="" style="ellipse;whiteSpace=wrap;html=1;aspect=fixed;dashed=1;strokeColor=#314354;fontColor=#ffffff;fillColor=none;" parent="QliWCdG8XgG-nN9K2C-c-1" vertex="1">
                    <mxGeometry x="320" y="200" width="40" height="40" as="geometry"/>
                </mxCell>
                <mxCell id="QliWCdG8XgG-nN9K2C-c-11" style="edgeStyle=none;rounded=0;orthogonalLoop=1;jettySize=auto;html=1;exitX=0.5;exitY=1;exitDx=0;exitDy=0;entryX=0.5;entryY=0;entryDx=0;entryDy=0;startArrow=open;startFill=0;endArrow=none;endFill=0;fillColor=#f0a30a;strokeColor=#BD7000;" parent="QliWCdG8XgG-nN9K2C-c-1" source="QliWCdG8XgG-nN9K2C-c-8" target="QliWCdG8XgG-nN9K2C-c-4" edge="1">
                    <mxGeometry relative="1" as="geometry"/>
                </mxCell>
                <mxCell id="QliWCdG8XgG-nN9K2C-c-8" value="" style="ellipse;whiteSpace=wrap;html=1;aspect=fixed;fillColor=#f0a30a;strokeColor=#BD7000;fontColor=#000000;" parent="QliWCdG8XgG-nN9K2C-c-1" vertex="1">
                    <mxGeometry x="280" y="120" width="40" height="40" as="geometry"/>
                </mxCell>
                <mxCell id="QliWCdG8XgG-nN9K2C-c-9" value="" style="ellipse;whiteSpace=wrap;html=1;aspect=fixed;fillColor=#647687;strokeColor=#314354;fontColor=#ffffff;" parent="QliWCdG8XgG-nN9K2C-c-1" vertex="1">
                    <mxGeometry x="320" y="120" width="40" height="40" as="geometry"/>
                </mxCell>
            </root>
        </mxGraphModel>
    </diagram>
</mxfile>